<mxfile host="app.diagrams.net" modified="2023-08-02T19:29:01.684Z" agent="Mozilla/5.0 (Windows NT 10.0; Win64; x64; rv:109.0) Gecko/20100101 Firefox/115.0" version="21.6.6" etag="G4JGzTyE7lnjmTVKJqud" type="github">
  <diagram name="PÃ¡gina-1" id="_vKb9bKOPB8C2fhSJEj9">
    <mxGraphModel>
      <root>
        <mxCell id="0" />
        <mxCell id="1" parent="0" />
      </root>
    </mxGraphModel>
  </diagram>
</mxfile>
